<svg width="32" height="32" viewBox="0 0 32 32" fill="none" xmlns="http://www.w3.org/2000/svg">
<path d="M30 16.25C30 14.1301 30 11.9503 30 7.71053C30 6.4897 29.0702 5.5 27.9231 5.5H4.07692C2.92987 5.5 2 6.4897 2 7.71053V24.2895C2 25.5103 2.92987 26.5 4.07692 26.5C5.82051 26.5 6.12821 26.5 7 26.5M2.5 12.5H29.5M12 23.78L14 21.78V29.78M18 21.78H21C21.5523 21.78 22 22.2277 22 22.78V24.78C22 25.0452 21.8946 25.2996 21.7071 25.4871C21.5196 25.6746 21.2652 25.78 21 25.78H19C18.7348 25.78 18.4804 25.8854 18.2929 26.0729C18.1054 26.2604 18 26.5148 18 26.78V28.78C18 29.3323 18.4477 29.78 19 29.78H22M26 21.78H28.5C28.8978 21.78 29.2794 21.938 29.5607 22.2193C29.842 22.5006 30 22.8822 30 23.28V24.28C30 25.1084 29.3284 25.78 28.5 25.78M28.5 25.78H27M28.5 25.78C29.3284 25.78 30 26.4516 30 27.28V28.28C30 29.1084 29.3284 29.78 28.5 29.78H26" stroke="#020304" style="stroke:#020304;stroke:color(display-p3 0.0078 0.0118 0.0157);stroke-opacity:1;" stroke-width="1.4" stroke-linecap="round" stroke-linejoin="round"/>
</svg>
